<svg xmlns="http://www.w3.org/2000/svg" xml:space="preserve" width="20mm" height="20mm" viewBox="0 0 75.591 75.591"><path d="M53.726 56.693H3.291a3.128 3.128 0 0 1-3.129-3.129V3.129C.162 1.4 1.562 0 3.292 0h27.152v21.954h-7.388v8.557h7.388v6.31c0 7.322 4.472 11.31 11.004 11.31 3.13 0 5.819-.234 6.602-.338v-7.652l-4.53-.002c-3.553 0-4.24-1.689-4.24-4.166v-5.462h8.472l-1.103-8.557h-7.37V0h14.447a3.13 3.13 0 0 1 3.13 3.129v50.435a3.13 3.13 0 0 1-3.13 3.129" style="fill:#6aba9c;fill-opacity:1;fill-rule:nonzero;stroke:none;stroke-width:.02124172" transform="matrix(1.33333 0 0 -1.33333 0 75.59)"/></svg>