<svg xmlns="http://www.w3.org/2000/svg" width="20mm" height="20mm" viewBox="0 0 75.591 75.591"><path fill="#1ed760" d="M38.048.277C17.175.277.253 17.198.253 38.072c0 20.874 16.922 37.794 37.795 37.794 20.875 0 37.796-16.92 37.796-37.794C75.844 17.2 58.924.279 38.048.279zm17.333 54.51a2.355 2.355 0 0 1-3.24.781c-8.875-5.42-20.046-6.648-33.202-3.642a2.357 2.357 0 0 1-1.048-4.594c14.397-3.29 26.746-1.873 36.709 4.215a2.356 2.356 0 0 1 .78 3.24zm4.626-10.292a2.946 2.946 0 0 1-4.053.973c-10.16-6.246-25.646-8.054-37.662-4.407a2.95 2.95 0 0 1-3.677-1.963 2.95 2.95 0 0 1 1.965-3.675c13.726-4.165 30.79-2.148 42.456 5.022a2.946 2.946 0 0 1 .97 4.05zm.397-10.716c-12.181-7.235-32.279-7.9-43.909-4.37a3.535 3.535 0 1 1-2.052-6.766c13.35-4.053 35.544-3.27 49.569 5.056a3.53 3.53 0 0 1 1.236 4.844 3.532 3.532 0 0 1-4.842 1.236z" style="stroke-width:.999998;fill:#6aba9c;fill-opacity:1"/></svg>