<svg xmlns="http://www.w3.org/2000/svg" width="435.03" height="133.194" viewBox="0 0 115.102 35.241"><g style="font-style:normal;font-variant:normal;font-weight:700;font-stretch:normal;font-size:15.34583378px;line-height:120.00000477%;font-family:&quot;Radikal WUT&quot;;-inkscape-font-specification:&quot;Radikal WUT, Bold&quot;;font-variant-ligatures:normal;font-variant-caps:normal;font-variant-numeric:normal;font-feature-settings:normal;text-align:start;letter-spacing:0;word-spacing:0;writing-mode:lr-tb;text-anchor:start;display:inline;fill:#6aba9c;fill-opacity:1;stroke:none;stroke-width:.49716496px;stroke-linecap:butt;stroke-linejoin:miter;stroke-opacity:1"><path d="M-127.53 1282.383h2.347v-11.28h-2.348zm6.613-4.466c1.09-.598 1.826-1.672 1.826-3.161 0-2.333-1.841-3.652-4.005-3.652h-.169v2.025h.046c.998 0 1.75.583 1.75 1.627 0 1.059-.722 1.627-1.765 1.627h-.03v2.056l2.01 3.944h2.7zm6.354-3.468c-2.056 0-3.422 1.719-3.422 4.051 0 2.333 1.366 4.036 3.422 4.036 1.09 0 1.826-.46 2.225-1.013l.108.86h2.04v-7.78h-2.04l-.108.874c-.399-.568-1.135-1.028-2.225-1.028zm.553 1.98c.767 0 1.212.414 1.55.966v2.195c-.338.552-.783.967-1.55.967-.998 0-1.673-.783-1.673-2.057 0-1.273.675-2.071 1.673-2.071zm13.114-5.709h-2.255v4.588c-.384-.43-1.06-.859-2.164-.859-2.057 0-3.468 1.719-3.468 4.051 0 2.333 1.411 4.036 3.468 4.036 1.12 0 1.872-.46 2.271-1.013l.123.86h2.025zm-3.851 5.709c.782 0 1.258.414 1.596.982v2.179c-.338.552-.814.967-1.596.967-1.029 0-1.734-.783-1.734-2.057 0-1.273.705-2.071 1.734-2.071zm6.912-5.617c-.783 0-1.335.568-1.335 1.335s.552 1.335 1.335 1.335c.767 0 1.32-.568 1.32-1.335s-.553-1.335-1.32-1.335zm1.12 3.79h-2.271v7.78h2.271zm5.487-.153c-2.364 0-4.098 1.734-4.098 4.067 0 2.332 1.734 4.02 4.098 4.02 2.363 0 4.112-1.688 4.112-4.02 0-2.333-1.75-4.067-4.112-4.067zm0 1.98c1.074 0 1.826.859 1.826 2.087 0 1.197-.752 2.04-1.826 2.04-1.06 0-1.796-.843-1.796-2.04 0-1.228.737-2.087 1.796-2.087zm-32.958 14.992 3.914 9.377h2.593l-5.448-11.479h-.061zm.983 7.336-2.087-5.003-3.361 7.044h2.609l.859-2.041zm8.835-9.622h-2.271v11.663h1.795l1.903-2.624 1.52 2.624h2.578l-2.594-4.573 2.363-3.207h-2.578l-2.716 4.127zm9.395 1.305h-2.271v2.577h-1.397v1.919h1.397v2.962c0 1.964 1.197 3.053 3.115 3.053.798 0 1.381-.215 1.78-.475l-.568-1.796c-.23.107-.537.246-1.012.246-.63 0-1.044-.4-1.044-1.06v-2.93h2.225v-1.918h-2.225zm11.338 2.577h-2.486l-1.842 3.898-1.795-3.898h-2.486l3.084 5.816-3.115 5.494h2.594zm11.745 0h-2.485l-1.489 3.76-1.826-3.76h-.061l-1.842 3.76-1.473-3.76h-2.486l3.729 7.934h.061l2.041-3.82 2.041 3.82h.062zm5.32-.153c-1.059 0-1.81.445-2.21 1.013l-.107-.86h-2.026v7.78h2.271v-4.895c.292-.46.752-.905 1.458-.905.783 0 1.259.583 1.259 1.443v4.358h2.27v-4.481c0-2.103-1.012-3.453-2.915-3.453zm8.162 0c-2.333 0-3.929 1.734-3.929 4.067 0 2.332 1.627 4.02 4.067 4.02 1.458 0 2.562-.521 3.33-1.504l-1.52-1.15c-.337.445-.95.782-1.734.782-1.104 0-1.795-.568-1.856-1.55h5.248v-.721c0-2.133-1.166-3.944-3.606-3.944zm-.062 1.703c.906 0 1.412.66 1.443 1.535h-3.008c.046-.89.644-1.535 1.565-1.535z" aria-label="Radio Aktywne" style="font-style:normal;font-variant:normal;font-weight:700;font-stretch:normal;font-size:15.34583378px;line-height:120.00000477%;font-family:&quot;Radikal WUT&quot;;-inkscape-font-specification:&quot;Radikal WUT, Bold&quot;;font-variant-ligatures:normal;font-variant-caps:normal;font-variant-numeric:normal;font-feature-settings:normal;text-align:start;writing-mode:lr-tb;text-anchor:start;fill:#6aba9c;fill-opacity:1;stroke-width:.49716496px" transform="translate(179.904 -1270.72)"/></g><path d="M41.767 203.55s-3.214 23.858-3.917 26.605c-.703 2.748-2.733 5.847-8.264 6.087-4.14.18-18.235 0-18.235 0s12.64-.51 18.627-2.816c2.08-.802 3.997-1.898 4.925-4.522 1.242-3.51 6.864-25.355 6.864-25.355z" style="fill:#6aba9c;fill-opacity:1;fill-rule:evenodd;stroke:none;stroke-width:.35277781;stroke-linecap:butt;stroke-linejoin:miter;stroke-miterlimit:4;stroke-dasharray:none;stroke-opacity:1" transform="translate(-.175 -201.081)"/><g style="fill:#6aba9c;fill-opacity:1;stroke:none;stroke-width:1.15594876;stroke-miterlimit:4;stroke-dasharray:none;stroke-opacity:1"><path d="m986.095 667.513 14.977.03c1.64 0 3.646 1.215 3.646 3.038 0 2.886-1.428 9.327-2.066 11.91-.638 2.581-2.43 9.478-2.491 11.787h-22.785c-2.582 0-2.795-1.094-2.734-3.342 0-2.157 2.582-3.95 4.86-3.95l15.707-.03 2.522-12.122h-20.355c-6.866 0-11.757 1.823-14.188 6.471-1.61 3.1-4.344 12.152-4.344 16.618 0 8.568 6.44 8.81 14.886 8.81h38.583l3.16-15.98 3.25-15.28c.881-4.254 2.947-9.753 1.64-15.646-.82-3.707-8.566-4.74-13.792-4.74l-17.833.03z" class="st1" style="clip-rule:evenodd;display:inline;fill:#6aba9c;fill-opacity:1;fill-rule:evenodd;stroke:none;stroke-width:1.15594876;stroke-miterlimit:4;stroke-dasharray:none;stroke-opacity:1" transform="translate(-277.441 -189.913) scale(.30518)"/><path d="M930.925 706.734h14.856c.364-2.461.82-4.861 1.336-7.322.486-2.37 4.436-21.205 5.256-22.876 4.01-8.02 7.869-8.993 19.565-8.993l7.382.03 2.947-12.486h-40.345z" class="st1" style="clip-rule:evenodd;display:inline;fill:#6aba9c;fill-opacity:1;fill-rule:evenodd;stroke:none;stroke-width:1.15594876;stroke-miterlimit:4;stroke-dasharray:none;stroke-opacity:1" transform="translate(-277.441 -189.913) scale(.30518)"/></g><path d="M.175 234.003s3.213-23.859 3.916-26.606c.703-2.748 2.734-5.847 8.264-6.087 4.14-.18 18.236 0 18.236 0s-12.64.51-18.627 2.816c-2.08.802-3.997 1.898-4.926 4.522-1.241 3.51-6.863 25.355-6.863 25.355z" style="fill:#6aba9c;fill-opacity:1;fill-rule:evenodd;stroke:none;stroke-width:.35277781;stroke-linecap:butt;stroke-linejoin:miter;stroke-miterlimit:4;stroke-dasharray:none;stroke-opacity:1" transform="translate(-.175 -201.081)"/></svg>